<!DOCTYPE svg PUBLIC "-//W3C//DTD SVG 1.1//EN" "http://www.w3.org/Graphics/SVG/1.1/DTD/svg11.dtd">
<!-- Uploaded to: SVG Repo, www.svgrepo.com, Transformed by: SVG Repo Mixer Tools -->
<svg fill="#000000" width="800px" height="800px" viewBox="0 0 24 24" id="information-circle" data-name="Flat Line" xmlns="http://www.w3.org/2000/svg" class="icon flat-line">
<g id="SVGRepo_bgCarrier" stroke-width="0"/>
<g id="SVGRepo_tracerCarrier" stroke-linecap="round" stroke-linejoin="round"/>
<g id="SVGRepo_iconCarrier">
<path id="secondary" d="M3,12a9,9,0,0,1,9-9h0a9,9,0,0,1,9,9h0a9,9,0,0,1-9,9h0a9,9,0,0,1-9-9Z" style="fill: #ffffff; stroke-width: 2;"/>
<line id="primary-upstroke" x1="12.05" y1="8" x2="11.95" y2="8" style="fill: none; stroke: #106b89; stroke-linecap: round; stroke-linejoin: round; stroke-width: 2.5;"/>
<path id="primary" d="M12,13v3M3,12a9,9,0,0,0,9,9h0a9,9,0,0,0,9-9h0a9,9,0,0,0-9-9h0a9,9,0,0,0-9,9Z" style="fill: none; stroke: #106b89; stroke-linecap: round; stroke-linejoin: round; stroke-width: 2;"/>
</g>
</svg>